# WaveFront *.obj file (generated by Autodesk ATF)

mtllib slope.mtl

g Solid1

v 0.000000 0.000000 0.000000
v 0.000000 0.000000 1.000000
v 0.000000 1.000000 0.000000
v 0.000000 1.000000 1.000000
v 1.000000 0.000000 0.000000
v 1.000000 0.000000 1.000000
vt 0.000000 0.000000 0.000000
vt 0.141421 0.000000 0.000000
vt 0.141421 0.100000 0.000000
vt 0.000000 0.100000 0.000000
vt 0.000000 0.000000 0.000000
vt 0.100000 0.000000 0.000000
vt 0.100000 0.100000 0.000000
vt 0.000000 0.100000 0.000000
vt 0.000000 0.000000 0.000000
vt 0.100000 0.000000 0.000000
vt 0.100000 0.100000 0.000000
vt 0.000000 0.100000 0.000000
vt -0.050000 0.050000 0.000000
vt -0.050000 -0.050000 0.000000
vt 0.050000 -0.050000 0.000000
vt 0.050000 -0.050000 0.000000
vt 0.050000 0.050000 0.000000
vt -0.050000 -0.050000 0.000000
vn 0.070711 0.070711 0.000000
vn 0.070711 0.070711 0.000000
vn 0.070711 0.070711 0.000000
vn 0.070711 0.070711 0.000000
vn 0.000000 -0.100000 0.000000
vn 0.000000 -0.100000 0.000000
vn 0.000000 -0.100000 0.000000
vn 0.000000 -0.100000 0.000000
vn -0.100000 0.000000 0.000000
vn -0.100000 0.000000 0.000000
vn -0.100000 0.000000 0.000000
vn -0.100000 0.000000 0.000000
vn 0.000000 0.000000 0.100000
vn 0.000000 0.000000 0.100000
vn 0.000000 0.000000 0.100000
vn 0.000000 0.000000 -0.100000
vn 0.000000 0.000000 -0.100000
vn 0.000000 0.000000 -0.100000
usemtl 191,191,191
f 5/1/1 3/2/2 6/4/4
f 6/4/4 3/2/2 4/3/3
f 1/5/5 5/6/6 2/8/8
f 2/8/8 5/6/6 6/7/7
f 3/9/9 1/10/10 4/12/12
f 4/12/12 1/10/10 2/11/11
f 4/13/13 2/14/14 6/15/15
f 1/16/16 3/17/17 5/18/18

# 6 vertices
# 18 texture params
# 18 normals
# 8 facets

# 1 groups
