# WaveFront *.obj file (generated by Autodesk ATF)

mtllib Stairs.mtl

g Solid2

v 0.000000 0.000000 0.000000
v 0.000000 0.000000 1.000000
v 0.000000 1.000000 0.000000
v 0.000000 1.000000 1.000000
v 0.100000 0.900000 0.000000
v 0.100000 0.900000 1.000000
v 0.100000 1.000000 0.000000
v 0.100000 1.000000 1.000000
v 0.200000 0.800000 0.000000
v 0.200000 0.800000 1.000000
v 0.200000 0.900000 0.000000
v 0.200000 0.900000 1.000000
v 0.300000 0.700000 0.000000
v 0.300000 0.700000 1.000000
v 0.300000 0.800000 0.000000
v 0.300000 0.800000 1.000000
v 0.400000 0.600000 0.000000
v 0.400000 0.600000 1.000000
v 0.400000 0.700000 0.000000
v 0.400000 0.700000 1.000000
v 0.500000 0.500000 0.000000
v 0.500000 0.500000 1.000000
v 0.500000 0.600000 0.000000
v 0.500000 0.600000 1.000000
v 0.600000 0.400000 0.000000
v 0.600000 0.400000 1.000000
v 0.600000 0.500000 0.000000
v 0.600000 0.500000 1.000000
v 0.700000 0.300000 0.000000
v 0.700000 0.300000 1.000000
v 0.700000 0.400000 0.000000
v 0.700000 0.400000 1.000000
v 0.800000 0.200000 0.000000
v 0.800000 0.200000 1.000000
v 0.800000 0.300000 0.000000
v 0.800000 0.300000 1.000000
v 0.900000 0.100000 0.000000
v 0.900000 0.100000 1.000000
v 0.900000 0.200000 0.000000
v 0.900000 0.200000 1.000000
v 1.000000 0.000000 0.000000
v 1.000000 0.000000 1.000000
v 1.000000 0.100000 0.000000
v 1.000000 0.100000 1.000000
vt 0.000000 0.000000 0.000000
vt 0.010000 0.000000 0.000000
vt 0.010000 0.100000 0.000000
vt 0.000000 0.100000 0.000000
vt 0.000000 0.000000 0.000000
vt 0.010000 0.000000 0.000000
vt 0.010000 0.100000 0.000000
vt 0.000000 0.100000 0.000000
vt 0.000000 0.000000 0.000000
vt 0.010000 0.000000 0.000000
vt 0.010000 0.100000 0.000000
vt 0.000000 0.100000 0.000000
vt 0.000000 0.000000 0.000000
vt 0.010000 0.000000 0.000000
vt 0.010000 0.100000 0.000000
vt 0.000000 0.100000 0.000000
vt 0.000000 0.000000 0.000000
vt 0.010000 0.000000 0.000000
vt 0.010000 0.100000 0.000000
vt 0.000000 0.100000 0.000000
vt 0.000000 0.000000 0.000000
vt 0.010000 0.000000 0.000000
vt 0.010000 0.100000 0.000000
vt 0.000000 0.100000 0.000000
vt 0.000000 0.000000 0.000000
vt 0.010000 0.000000 0.000000
vt 0.010000 0.100000 0.000000
vt 0.000000 0.100000 0.000000
vt 0.000000 0.000000 0.000000
vt 0.010000 0.000000 0.000000
vt 0.010000 0.100000 0.000000
vt 0.000000 0.100000 0.000000
vt 0.000000 0.000000 0.000000
vt 0.010000 0.000000 0.000000
vt 0.010000 0.100000 0.000000
vt 0.000000 0.100000 0.000000
vt 0.000000 0.000000 0.000000
vt 0.010000 0.000000 0.000000
vt 0.010000 0.100000 0.000000
vt 0.000000 0.100000 0.000000
vt 0.000000 0.000000 0.000000
vt 0.010000 0.000000 0.000000
vt 0.010000 0.100000 0.000000
vt 0.000000 0.100000 0.000000
vt 0.000000 0.000000 0.000000
vt 0.010000 0.000000 0.000000
vt 0.010000 0.100000 0.000000
vt 0.000000 0.100000 0.000000
vt 0.000000 0.000000 0.000000
vt 0.010000 0.000000 0.000000
vt 0.010000 0.100000 0.000000
vt 0.000000 0.100000 0.000000
vt 0.000000 0.000000 0.000000
vt 0.010000 0.000000 0.000000
vt 0.010000 0.100000 0.000000
vt 0.000000 0.100000 0.000000
vt 0.000000 0.000000 0.000000
vt 0.010000 0.000000 0.000000
vt 0.010000 0.100000 0.000000
vt 0.000000 0.100000 0.000000
vt 0.000000 0.000000 0.000000
vt 0.010000 0.000000 0.000000
vt 0.010000 0.100000 0.000000
vt 0.000000 0.100000 0.000000
vt 0.000000 0.000000 0.000000
vt 0.010000 0.000000 0.000000
vt 0.010000 0.100000 0.000000
vt 0.000000 0.100000 0.000000
vt 0.000000 0.000000 0.000000
vt 0.010000 0.000000 0.000000
vt 0.010000 0.100000 0.000000
vt 0.000000 0.100000 0.000000
vt 0.000000 0.000000 0.000000
vt 0.100000 0.000000 0.000000
vt 0.100000 0.100000 0.000000
vt 0.000000 0.100000 0.000000
vt 0.000000 0.000000 0.000000
vt 0.100000 0.000000 0.000000
vt 0.100000 0.100000 0.000000
vt 0.000000 0.100000 0.000000
vt 0.000000 0.000000 0.000000
vt 0.010000 0.000000 0.000000
vt 0.010000 0.100000 0.000000
vt 0.000000 0.100000 0.000000
vt 0.000000 0.000000 0.000000
vt 0.010000 0.000000 0.000000
vt 0.010000 0.100000 0.000000
vt 0.000000 0.100000 0.000000
vt -0.040000 0.040000 0.000000
vt -0.040000 0.050000 0.000000
vt -0.050000 0.050000 0.000000
vt -0.050000 -0.050000 0.000000
vt 0.050000 -0.050000 0.000000
vt 0.050000 -0.040000 0.000000
vt 0.040000 -0.040000 0.000000
vt 0.040000 -0.030000 0.000000
vt 0.030000 -0.030000 0.000000
vt 0.030000 -0.020000 0.000000
vt 0.020000 -0.020000 0.000000
vt 0.020000 -0.010000 0.000000
vt 0.010000 -0.010000 0.000000
vt 0.010000 0.000000 0.000000
vt 0.000000 0.000000 0.000000
vt 0.000000 0.010000 0.000000
vt -0.010000 0.010000 0.000000
vt -0.010000 0.020000 0.000000
vt -0.020000 0.020000 0.000000
vt -0.020000 0.030000 0.000000
vt -0.030000 0.030000 0.000000
vt -0.030000 0.040000 0.000000
vt 0.040000 0.050000 0.000000
vt 0.040000 0.040000 0.000000
vt 0.030000 0.040000 0.000000
vt 0.030000 0.030000 0.000000
vt 0.020000 0.030000 0.000000
vt 0.020000 0.020000 0.000000
vt 0.010000 0.020000 0.000000
vt 0.010000 0.010000 0.000000
vt -0.000000 0.010000 0.000000
vt -0.000000 0.000000 0.000000
vt -0.010000 0.000000 0.000000
vt -0.010000 -0.010000 0.000000
vt -0.020000 -0.010000 0.000000
vt -0.020000 -0.020000 0.000000
vt -0.030000 -0.020000 0.000000
vt -0.030000 -0.030000 0.000000
vt -0.040000 -0.030000 0.000000
vt -0.040000 -0.040000 0.000000
vt -0.050000 -0.040000 0.000000
vt -0.050000 -0.050000 0.000000
vt 0.050000 -0.050000 0.000000
vt 0.050000 0.050000 0.000000
vn 0.000000 0.100000 0.000000
vn 0.000000 0.100000 0.000000
vn 0.000000 0.100000 0.000000
vn 0.000000 0.100000 0.000000
vn 0.100000 0.000000 0.000000
vn 0.100000 0.000000 0.000000
vn 0.100000 0.000000 0.000000
vn 0.100000 0.000000 0.000000
vn 0.000000 0.100000 0.000000
vn 0.000000 0.100000 0.000000
vn 0.000000 0.100000 0.000000
vn 0.000000 0.100000 0.000000
vn 0.100000 0.000000 0.000000
vn 0.100000 0.000000 0.000000
vn 0.100000 0.000000 0.000000
vn 0.100000 0.000000 0.000000
vn 0.000000 0.100000 0.000000
vn 0.000000 0.100000 0.000000
vn 0.000000 0.100000 0.000000
vn 0.000000 0.100000 0.000000
vn 0.100000 0.000000 0.000000
vn 0.100000 0.000000 0.000000
vn 0.100000 0.000000 0.000000
vn 0.100000 0.000000 0.000000
vn 0.000000 0.100000 0.000000
vn 0.000000 0.100000 0.000000
vn 0.000000 0.100000 0.000000
vn 0.000000 0.100000 0.000000
vn 0.100000 0.000000 0.000000
vn 0.100000 0.000000 0.000000
vn 0.100000 0.000000 0.000000
vn 0.100000 0.000000 0.000000
vn 0.000000 0.100000 0.000000
vn 0.000000 0.100000 0.000000
vn 0.000000 0.100000 0.000000
vn 0.000000 0.100000 0.000000
vn 0.100000 0.000000 0.000000
vn 0.100000 0.000000 0.000000
vn 0.100000 0.000000 0.000000
vn 0.100000 0.000000 0.000000
vn 0.000000 0.100000 0.000000
vn 0.000000 0.100000 0.000000
vn 0.000000 0.100000 0.000000
vn 0.000000 0.100000 0.000000
vn 0.100000 0.000000 0.000000
vn 0.100000 0.000000 0.000000
vn 0.100000 0.000000 0.000000
vn 0.100000 0.000000 0.000000
vn 0.000000 0.100000 0.000000
vn 0.000000 0.100000 0.000000
vn 0.000000 0.100000 0.000000
vn 0.000000 0.100000 0.000000
vn 0.100000 0.000000 0.000000
vn 0.100000 0.000000 0.000000
vn 0.100000 0.000000 0.000000
vn 0.100000 0.000000 0.000000
vn 0.000000 0.100000 0.000000
vn 0.000000 0.100000 0.000000
vn 0.000000 0.100000 0.000000
vn 0.000000 0.100000 0.000000
vn 0.100000 0.000000 0.000000
vn 0.100000 0.000000 0.000000
vn 0.100000 0.000000 0.000000
vn 0.100000 0.000000 0.000000
vn 0.000000 0.100000 0.000000
vn 0.000000 0.100000 0.000000
vn 0.000000 0.100000 0.000000
vn 0.000000 0.100000 0.000000
vn 0.100000 0.000000 0.000000
vn 0.100000 0.000000 0.000000
vn 0.100000 0.000000 0.000000
vn 0.100000 0.000000 0.000000
vn 0.000000 -0.100000 0.000000
vn 0.000000 -0.100000 0.000000
vn 0.000000 -0.100000 0.000000
vn 0.000000 -0.100000 0.000000
vn -0.100000 0.000000 0.000000
vn -0.100000 0.000000 0.000000
vn -0.100000 0.000000 0.000000
vn -0.100000 0.000000 0.000000
vn 0.000000 0.100000 0.000000
vn 0.000000 0.100000 0.000000
vn 0.000000 0.100000 0.000000
vn 0.000000 0.100000 0.000000
vn 0.100000 0.000000 0.000000
vn 0.100000 0.000000 0.000000
vn 0.100000 0.000000 0.000000
vn 0.100000 0.000000 0.000000
vn 0.000000 0.000000 0.100000
vn 0.000000 0.000000 0.100000
vn 0.000000 0.000000 0.100000
vn 0.000000 0.000000 0.100000
vn 0.000000 0.000000 0.100000
vn 0.000000 0.000000 0.100000
vn 0.000000 0.000000 0.100000
vn 0.000000 0.000000 0.100000
vn 0.000000 0.000000 0.100000
vn 0.000000 0.000000 0.100000
vn 0.000000 0.000000 0.100000
vn 0.000000 0.000000 0.100000
vn 0.000000 0.000000 0.100000
vn 0.000000 0.000000 0.100000
vn 0.000000 0.000000 0.100000
vn 0.000000 0.000000 0.100000
vn 0.000000 0.000000 0.100000
vn 0.000000 0.000000 0.100000
vn 0.000000 0.000000 0.100000
vn 0.000000 0.000000 0.100000
vn 0.000000 0.000000 0.100000
vn 0.000000 0.000000 0.100000
vn 0.000000 0.000000 -0.100000
vn 0.000000 0.000000 -0.100000
vn 0.000000 0.000000 -0.100000
vn 0.000000 0.000000 -0.100000
vn 0.000000 0.000000 -0.100000
vn 0.000000 0.000000 -0.100000
vn 0.000000 0.000000 -0.100000
vn 0.000000 0.000000 -0.100000
vn 0.000000 0.000000 -0.100000
vn 0.000000 0.000000 -0.100000
vn 0.000000 0.000000 -0.100000
vn 0.000000 0.000000 -0.100000
vn 0.000000 0.000000 -0.100000
vn 0.000000 0.000000 -0.100000
vn 0.000000 0.000000 -0.100000
vn 0.000000 0.000000 -0.100000
vn 0.000000 0.000000 -0.100000
vn 0.000000 0.000000 -0.100000
vn 0.000000 0.000000 -0.100000
vn 0.000000 0.000000 -0.100000
vn 0.000000 0.000000 -0.100000
vn 0.000000 0.000000 -0.100000
usemtl 191,191,191
f 11/1/1 5/2/2 12/4/4
f 12/4/4 5/2/2 6/3/3
f 9/5/5 11/6/6 10/8/8
f 10/8/8 11/6/6 12/7/7
f 15/9/9 9/10/10 16/12/12
f 16/12/12 9/10/10 10/11/11
f 13/13/13 15/14/14 14/16/16
f 14/16/16 15/14/14 16/15/15
f 19/17/17 13/18/18 20/20/20
f 20/20/20 13/18/18 14/19/19
f 17/21/21 19/22/22 18/24/24
f 18/24/24 19/22/22 20/23/23
f 23/25/25 17/26/26 24/28/28
f 24/28/28 17/26/26 18/27/27
f 21/29/29 23/30/30 22/32/32
f 22/32/32 23/30/30 24/31/31
f 27/33/33 21/34/34 28/36/36
f 28/36/36 21/34/34 22/35/35
f 25/37/37 27/38/38 26/40/40
f 26/40/40 27/38/38 28/39/39
f 31/41/41 25/42/42 32/44/44
f 32/44/44 25/42/42 26/43/43
f 29/45/45 31/46/46 30/48/48
f 30/48/48 31/46/46 32/47/47
f 35/49/49 29/50/50 36/52/52
f 36/52/52 29/50/50 30/51/51
f 33/53/53 35/54/54 34/56/56
f 34/56/56 35/54/54 36/55/55
f 39/57/57 33/58/58 40/60/60
f 40/60/60 33/58/58 34/59/59
f 37/61/61 39/62/62 38/64/64
f 38/64/64 39/62/62 40/63/63
f 43/65/65 37/66/66 44/68/68
f 44/68/68 37/66/66 38/67/67
f 41/69/69 43/70/70 42/72/72
f 42/72/72 43/70/70 44/71/71
f 1/73/73 41/74/74 2/76/76
f 2/76/76 41/74/74 42/75/75
f 3/77/77 1/78/78 4/80/80
f 4/80/80 1/78/78 2/79/79
f 7/81/81 3/82/82 8/84/84
f 8/84/84 3/82/82 4/83/83
f 5/85/85 7/86/86 6/88/88
f 6/88/88 7/86/86 8/87/87
f 8/90/90 4/91/91 6/89/89
f 6/89/89 4/91/91 2/92/92
f 6/89/89 2/92/92 10/109/109
f 10/109/109 2/92/92 14/107/107
f 10/109/109 14/107/107 16/108/108
f 42/93/93 38/95/95 2/92/92
f 2/92/92 38/95/95 34/97/97
f 2/92/92 34/97/97 30/99/99
f 30/99/99 34/97/97 36/98/98
f 42/93/93 44/94/94 38/95/95
f 38/95/95 40/96/96 34/97/97
f 32/100/100 26/101/101 30/99/99
f 30/99/99 26/101/101 2/92/92
f 28/102/102 22/103/103 26/101/101
f 26/101/101 22/103/103 2/92/92
f 24/104/104 18/105/105 22/103/103
f 22/103/103 18/105/105 2/92/92
f 20/106/106 14/107/107 18/105/105
f 18/105/105 14/107/107 2/92/92
f 10/109/109 12/110/110 6/89/89
f 7/111/111 5/112/112 3/132/132
f 3/132/132 5/112/112 1/131/131
f 1/131/131 5/112/112 9/114/114
f 1/131/131 9/114/114 13/116/116
f 13/116/116 9/114/114 15/115/115
f 5/112/112 11/113/113 9/114/114
f 19/117/117 17/118/118 13/116/116
f 13/116/116 17/118/118 1/131/131
f 23/119/119 21/120/120 17/118/118
f 17/118/118 21/120/120 1/131/131
f 27/121/121 25/122/122 21/120/120
f 21/120/120 25/122/122 1/131/131
f 31/123/123 29/124/124 25/122/122
f 25/122/122 29/124/124 1/131/131
f 35/125/125 33/126/126 29/124/124
f 29/124/124 33/126/126 1/131/131
f 39/127/127 37/128/128 33/126/126
f 33/126/126 37/128/128 1/131/131
f 43/129/129 41/130/130 37/128/128
f 37/128/128 41/130/130 1/131/131

# 44 vertices
# 132 texture params
# 132 normals
# 84 facets

# 1 groups
